<svg xmlns="http://www.w3.org/2000/svg" viewBox="0 0 1200 650"><rect width="1200" height="650" rx="32" fill="#f8fafc"/><ellipse cx="600" cy="315" rx="330" ry="175" fill="#eff6ff" stroke="#93c5fd" stroke-width="8"/><path d="M390 350c70-150 350-170 420-10-80 130-330 150-420 10z" fill="#dbeafe"/><path d="M500 250c70 60 140 65 205 0M500 380c70-55 140-55 205 0" fill="none" stroke="#2563eb" stroke-width="10" stroke-linecap="round"/><g fill="#059669"><circle cx="430" cy="315" r="18"/><circle cx="510" cy="230" r="18"/><circle cx="600" cy="205" r="18"/><circle cx="690" cy="230" r="18"/><circle cx="770" cy="315" r="18"/><circle cx="690" cy="400" r="18"/><circle cx="600" cy="425" r="18"/><circle cx="510" cy="400" r="18"/></g><path d="M430 315L510 230L600 205L690 230L770 315L690 400L600 425L510 400Z" fill="none" stroke="#059669" stroke-width="5"/><text x="600" y="555" text-anchor="middle" font-family="Arial,sans-serif" font-size="34" font-weight="700" fill="#0f172a">Collective intelligence may emerge from connected expertise</text><text x="600" y="595" text-anchor="middle" font-family="Arial,sans-serif" font-size="22" fill="#475569">Not one mind—an ecosystem that can learn together</text></svg>