<svg xmlns="http://www.w3.org/2000/svg" viewBox="0 0 1200 650"><rect width="1200" height="650" rx="32" fill="#f8fafc"/><g fill="#fff" stroke="#cbd5e1" stroke-width="5"><rect x="120" y="130" width="210" height="150" rx="24"/><rect x="360" y="130" width="210" height="150" rx="24"/><rect x="600" y="130" width="210" height="150" rx="24"/><rect x="840" y="130" width="210" height="150" rx="24"/><rect x="240" y="345" width="210" height="150" rx="24"/><rect x="495" y="345" width="210" height="150" rx="24"/><rect x="750" y="345" width="210" height="150" rx="24"/></g><g font-family="Arial,sans-serif" text-anchor="middle" fill="#0f172a" font-size="24" font-weight="700"><text x="225" y="215">Memory</text><text x="465" y="215">Validation</text><text x="705" y="215">Privacy</text><text x="945" y="215">Security</text><text x="345" y="430">Provenance</text><text x="600" y="430">Governance</text><text x="855" y="430">Goal conflict</text></g><g fill="#2563eb"><circle cx="225" cy="175" r="16"/><circle cx="465" cy="175" r="16"/><circle cx="705" cy="175" r="16"/><circle cx="945" cy="175" r="16"/><circle cx="345" cy="390" r="16"/><circle cx="600" cy="390" r="16"/><circle cx="855" cy="390" r="16"/></g><text x="600" y="570" text-anchor="middle" font-family="Arial,sans-serif" font-size="34" font-weight="700" fill="#0f172a">The future depends on what we can govern</text><text x="600" y="610" text-anchor="middle" font-family="Arial,sans-serif" font-size="22" fill="#475569">Shared intelligence creates shared responsibility</text></svg>